<svg width="30" height="30" viewBox="0 0 30 30" fill="none" xmlns="http://www.w3.org/2000/svg">
<path d="M13.4129 15.1432C13.4129 15.5498 13.574 15.9397 13.8606 16.2273C14.1472 16.5148 14.5359 16.6763 14.9412 16.6763C15.3466 16.6763 15.7353 16.5148 16.0219 16.2273C16.3085 15.9397 16.4695 15.5498 16.4695 15.1432C16.4695 14.7366 16.3085 14.3466 16.0219 14.0591C15.7353 13.7716 15.3466 13.6101 14.9412 13.6101C14.5359 13.6101 14.1472 13.7716 13.8606 14.0591C13.574 14.3466 13.4129 14.7366 13.4129 15.1432ZM19.7808 15.1432C19.7808 15.5498 19.9418 15.9397 20.2284 16.2273C20.515 16.5148 20.9038 16.6763 21.3091 16.6763C21.7144 16.6763 22.1032 16.5148 22.3898 16.2273C22.6764 15.9397 22.8374 15.5498 22.8374 15.1432C22.8374 14.7366 22.6764 14.3466 22.3898 14.0591C22.1032 13.7716 21.7144 13.6101 21.3091 13.6101C20.9038 13.6101 20.515 13.7716 20.2284 14.0591C19.9418 14.3466 19.7808 14.7366 19.7808 15.1432ZM7.04506 15.1432C7.04506 15.5498 7.20607 15.9397 7.49268 16.2273C7.77929 16.5148 8.16802 16.6763 8.57335 16.6763C8.97868 16.6763 9.3674 16.5148 9.65401 16.2273C9.94062 15.9397 10.1016 15.5498 10.1016 15.1432C10.1016 14.7366 9.94062 14.3466 9.65401 14.0591C9.3674 13.7716 8.97868 13.6101 8.57335 13.6101C8.16802 13.6101 7.77929 13.7716 7.49268 14.0591C7.20607 14.3466 7.04506 14.7366 7.04506 15.1432ZM28.0973 9.59847C27.3777 7.88331 26.3461 6.34382 25.0311 5.02152C23.7254 3.70687 22.1752 2.66188 20.4685 1.94573C18.7174 1.20792 16.858 0.834229 14.9412 0.834229H14.8775C12.9481 0.84381 11.0791 1.22709 9.32158 1.98086C7.62949 2.70436 6.0939 3.7512 4.80038 5.06304C3.49815 6.38214 2.47611 7.91525 1.76927 9.62402C1.03697 11.3935 0.667631 13.2747 0.677183 15.2103C0.687986 17.4284 1.2111 19.6138 2.20547 21.595V26.4498C2.20547 26.8395 2.35978 27.2132 2.63445 27.4887C2.90912 27.7643 3.28165 27.919 3.67008 27.919H8.51285C10.4878 28.9165 12.6664 29.4413 14.8775 29.4521H14.9444C16.8516 29.4521 18.7015 29.0816 20.4431 28.3566C22.1411 27.649 23.6855 26.6162 24.9897 25.316C26.3047 24.0096 27.3395 22.4829 28.0622 20.7805C28.8136 19.0175 29.1957 17.1426 29.2053 15.2071C29.2148 13.2619 28.8391 11.3743 28.0973 9.59847ZM23.2863 23.588C21.0544 25.8046 18.0933 27.0247 14.9412 27.0247H14.8871C12.9672 27.0152 11.06 26.5361 9.3757 25.6354L9.10825 25.4916H4.62527V20.9945L4.48199 20.7262C3.58412 19.0366 3.10653 17.1234 3.09698 15.1975C3.08424 12.0131 4.29732 9.02355 6.52289 6.77181C8.74528 4.52006 11.7159 3.27442 14.8903 3.26164H14.9444C16.5364 3.26164 18.0806 3.57146 19.5356 4.1847C20.9557 4.78197 22.2293 5.64114 23.3245 6.73987C24.4166 7.8354 25.2763 9.11618 25.8717 10.5407C26.4894 12.0163 26.7982 13.5813 26.7918 15.1975C26.7727 18.3787 25.5278 21.3586 23.2863 23.588Z" fill="#FF6666"/>
</svg>
