<svg width="25" height="28" viewBox="0 0 25 28" fill="none" xmlns="http://www.w3.org/2000/svg">
<line x1="20.7501" y1="19.1036" x2="20.7501" y2="27.1036" stroke="#FF6666" stroke-width="2.5"/>
<path d="M18.0829 17.869C18.849 17.4406 19.7258 17.1967 20.6597 17.1967H20.6629C20.7578 17.1967 20.8021 17.0781 20.7325 17.0122C19.7613 16.1048 18.652 15.372 17.4498 14.8437C17.4371 14.8371 17.4245 14.8338 17.4118 14.8272C19.3776 13.3409 20.6565 10.9252 20.6565 8.19972C20.6565 3.68474 17.1491 0.0266113 12.8217 0.0266113C8.49434 0.0266113 4.99004 3.68474 4.99004 8.19972C4.99004 10.9252 6.26894 13.3409 8.23793 14.8272C8.22527 14.8338 8.21261 14.8371 8.19994 14.8437C6.78493 15.4665 5.51553 16.3596 4.4234 17.4999C3.33758 18.6283 2.47313 19.9659 1.87827 21.4382C1.293 22.8799 0.977129 24.4245 0.947589 25.9894C0.946744 26.0246 0.95267 26.0596 0.965018 26.0923C0.977366 26.1251 0.995886 26.1549 1.01949 26.1801C1.04309 26.2053 1.07129 26.2253 1.10244 26.239C1.13358 26.2526 1.16704 26.2597 1.20084 26.2596H3.09702C3.23314 26.2596 3.3471 26.1443 3.35027 26.0026C3.41358 23.4584 4.39175 21.0757 6.12332 19.2697C7.91188 17.4011 10.2924 16.3728 12.8249 16.3728C14.6198 16.3728 16.3418 16.8902 17.8265 17.8591C17.8646 17.8841 17.9084 17.8981 17.9534 17.8999C17.9984 17.9016 18.0431 17.891 18.0829 17.869ZM12.8249 13.8682C11.375 13.8682 10.0107 13.2782 8.98184 12.2072C8.47565 11.6816 8.07436 11.0569 7.80108 10.3691C7.5278 9.6813 7.38794 8.94402 7.38955 8.19972C7.38955 6.68703 7.95619 5.26333 8.98184 4.19226C10.0075 3.12119 11.3719 2.53127 12.8249 2.53127C14.2779 2.53127 15.6391 3.12119 16.6679 4.19226C17.1741 4.71788 17.5754 5.34257 17.8486 6.03035C18.1219 6.71814 18.2618 7.45542 18.2602 8.19972C18.2602 9.7124 17.6935 11.1361 16.6679 12.2072C15.6391 13.2782 14.2747 13.8682 12.8249 13.8682ZM24.4679 21.7117H16.8705C16.7312 21.7117 16.6172 21.8303 16.6172 21.9754V23.8209C16.6172 23.9659 16.7312 24.0845 16.8705 24.0845H24.4679C24.6072 24.0845 24.7211 23.9659 24.7211 23.8209V21.9754C24.7211 21.8303 24.6072 21.7117 24.4679 21.7117Z" fill="#FF6666"/>
</svg>
