<svg width="26" height="26" viewBox="0 0 26 26" fill="none" xmlns="http://www.w3.org/2000/svg">
<path d="M13.0485 0.707886C6.14901 0.707886 0.55719 6.29971 0.55719 13.1992V24.9098C0.55719 25.3425 0.905256 25.6906 1.3379 25.6906H7.32333C8.47162 25.6906 9.40522 24.757 9.40522 23.6087V16.8425C9.40522 15.6942 8.47162 14.7606 7.32333 14.7606H2.89931V13.1992C2.89931 7.59438 7.44369 3.05001 13.0485 3.05001C18.6534 3.05001 23.1977 7.59438 23.1977 13.1992V14.7606H18.7737C17.6254 14.7606 16.6918 15.6942 16.6918 16.8425V23.6087C16.6918 24.757 17.6254 25.6906 18.7737 25.6906H24.7591C25.1918 25.6906 25.5399 25.3425 25.5399 24.9098V13.1992C25.5399 6.29971 19.948 0.707886 13.0485 0.707886ZM7.06309 17.1028V23.3484H2.89931V17.1028H7.06309ZM23.1977 23.3484H19.034V17.1028H23.1977V23.3484Z" fill="#FF6666"/>
</svg>
