<svg width="32" height="32" viewBox="0 0 32 32" fill="none" xmlns="http://www.w3.org/2000/svg">
<path d="M18.0348 22.4029C17.9742 22.3429 17.8924 22.3092 17.8071 22.3092C17.7218 22.3092 17.64 22.3429 17.5794 22.4029L12.8966 27.0861C10.7284 29.2544 7.06923 29.4841 4.67542 27.0861C2.27758 24.6881 2.50729 21.0326 4.67542 18.8643L9.35826 14.1811C9.48318 14.0561 9.48318 13.8506 9.35826 13.7256L7.75432 12.1216C7.69373 12.0616 7.6119 12.0279 7.52663 12.0279C7.44136 12.0279 7.35953 12.0616 7.29894 12.1216L2.6161 16.8048C-0.793258 20.2144 -0.793258 25.7319 2.6161 29.1375C6.02546 32.5432 11.5425 32.5472 14.9478 29.1375L19.6307 24.4543C19.7556 24.3294 19.7556 24.1238 19.6307 23.9989L18.0348 22.4029ZM28.4563 3.29921C25.047 -0.110437 19.5299 -0.110437 16.1246 3.29921L11.4377 7.98243C11.3777 8.04303 11.3441 8.12486 11.3441 8.21014C11.3441 8.29542 11.3777 8.37726 11.4377 8.43786L13.0376 10.0379C13.1626 10.1628 13.3681 10.1628 13.493 10.0379L18.1758 5.35467C20.344 3.18636 24.0032 2.95663 26.397 5.35467C28.7948 7.7527 28.5651 11.4082 26.397 13.5765L21.7142 18.2597C21.6542 18.3203 21.6205 18.4022 21.6205 18.4874C21.6205 18.5727 21.6542 18.6546 21.7142 18.7152L23.3181 20.3192C23.443 20.4442 23.6486 20.4442 23.7735 20.3192L28.4563 15.636C31.8616 12.2264 31.8616 6.70885 28.4563 3.29921ZM19.4896 10.59C19.429 10.53 19.3472 10.4964 19.2619 10.4964C19.1767 10.4964 19.0948 10.53 19.0342 10.59L9.90633 19.7147C9.84633 19.7753 9.81267 19.8571 9.81267 19.9424C9.81267 20.0277 9.84633 20.1095 9.90633 20.1701L11.5022 21.7661C11.6271 21.891 11.8327 21.891 11.9576 21.7661L21.0815 12.6415C21.2064 12.5165 21.2064 12.311 21.0815 12.186L19.4896 10.59Z" fill="#FF6666"/>
</svg>
