<svg width="25" height="27" viewBox="0 0 25 27" fill="none" xmlns="http://www.w3.org/2000/svg">
<path d="M18.0843 17.869C18.8504 17.4405 19.7272 17.1967 20.6611 17.1967H20.6642C20.7592 17.1967 20.8035 17.078 20.7339 17.0121C19.7627 16.1048 18.6533 15.3719 17.4512 14.8436C17.4385 14.837 17.4258 14.8337 17.4132 14.8271C19.379 13.3408 20.6579 10.9251 20.6579 8.19966C20.6579 3.68467 17.1504 0.0265503 12.8231 0.0265503C8.4957 0.0265503 4.99139 3.68467 4.99139 8.19966C4.99139 10.9251 6.27029 13.3408 8.23929 14.8271C8.22663 14.8337 8.21397 14.837 8.2013 14.8436C6.78628 15.4665 5.51688 16.3596 4.42475 17.4999C3.33893 18.6282 2.47447 19.9659 1.87962 21.4381C1.29434 22.8798 0.978471 24.4245 0.948932 25.9893C0.948087 26.0245 0.954013 26.0595 0.966361 26.0923C0.978709 26.125 0.997229 26.1549 1.02083 26.18C1.04443 26.2052 1.07263 26.2252 1.10378 26.2389C1.13493 26.2526 1.16838 26.2596 1.20218 26.2596H3.09837C3.23449 26.2596 3.34845 26.1442 3.35162 26.0025C3.41493 23.4583 4.3931 21.0756 6.12468 19.2696C7.91324 17.401 10.2938 16.3728 12.8262 16.3728C14.6211 16.3728 16.3432 16.8902 17.8279 17.8591C17.866 17.884 17.9098 17.8981 17.9548 17.8998C17.9998 17.9016 18.0445 17.8909 18.0843 17.869ZM12.8262 13.8681C11.3764 13.8681 10.012 13.2782 8.98321 12.2071C8.47701 11.6815 8.07572 11.0568 7.80244 10.369C7.52916 9.68124 7.3893 8.94396 7.39091 8.19966C7.39091 6.68697 7.95755 5.26327 8.98321 4.1922C10.0089 3.12112 11.3732 2.53121 12.8262 2.53121C14.2792 2.53121 15.6404 3.12112 16.6693 4.1922C17.1755 4.71782 17.5768 5.34251 17.85 6.03029C18.1233 6.71808 18.2632 7.45535 18.2616 8.19966C18.2616 9.71234 17.6949 11.136 16.6693 12.2071C15.6404 13.2782 14.2761 13.8681 12.8262 13.8681ZM24.4693 21.7116H16.8719C16.7326 21.7116 16.6186 21.8303 16.6186 21.9753V23.8208C16.6186 23.9658 16.7326 24.0845 16.8719 24.0845H24.4693C24.6086 24.0845 24.7225 23.9658 24.7225 23.8208V21.9753C24.7225 21.8303 24.6086 21.7116 24.4693 21.7116Z" fill="#FF6666"/>
</svg>
