<svg width="40" height="40" viewBox="0 0 40 40" fill="none" xmlns="http://www.w3.org/2000/svg">
<rect x="6.66669" width="33.3333" height="10" rx="5" fill="#7F3F3F"/>
<rect x="11.2056" y="6.66602" width="18.0977" height="5.74456" rx="2.87228" transform="rotate(30 11.2056 6.66602)" fill="#FF6666"/>
<circle cx="11.6667" cy="5" r="5" fill="#FF6666"/>
<rect width="18.0977" height="5.74456" rx="2.87228" transform="matrix(-0.866025 0.5 0.5 0.866025 35.673 6.66602)" fill="#FF6666"/>
<circle r="5" transform="matrix(-1 0 0 1 35 5)" fill="#FF6666"/>
<ellipse cx="8.33333" cy="34.1673" rx="8.33333" ry="5.83333" fill="#7F3F3F"/>
<ellipse cx="31.6666" cy="34.1673" rx="8.33333" ry="5.83333" fill="#7F3F3F"/>
<path fill-rule="evenodd" clip-rule="evenodd" d="M30.212 13.228C30.212 10.5251 32.4031 8.33398 35.106 8.33398C37.8089 8.33398 40 10.5251 40 13.228V33.334H30.212L30.212 13.228Z" fill="#FF6666"/>
<rect x="11.2056" y="6.66602" width="18.0977" height="5.74456" rx="2.87228" transform="rotate(30 11.2056 6.66602)" fill="#FF6666"/>
<path fill-rule="evenodd" clip-rule="evenodd" d="M16.6667 13.334C16.6667 10.5726 14.4281 8.33398 11.6667 8.33398C8.90526 8.33398 6.66669 10.5726 6.66669 13.334L6.66669 33.334H16.6667L16.6667 13.334Z" fill="#FF6666"/>
<circle cx="11.6667" cy="5" r="5" fill="#FF6666"/>
<rect width="18.0977" height="5.74456" rx="2.87228" transform="matrix(-0.866025 0.5 0.5 0.866025 35.673 6.66602)" fill="#FF6666"/>
</svg>
