<svg width="177" height="177" viewBox="0 0 177 177" fill="none" xmlns="http://www.w3.org/2000/svg">
<circle cx="88.5" cy="88.5" r="88.5" fill="#F9D342"/>
<path d="M66.9982 53.8013V100.418C64.348 98.8805 61.275 97.9957 57.9972 97.9957C48.0708 97.9957 39.995 106.071 39.995 115.998C39.995 125.924 48.0708 134 57.9972 134C67.9235 134 75.9993 125.924 75.9993 115.998V61.1804L112.004 53.9795V91.4165C109.354 89.8794 106.28 88.9946 103.003 88.9946C93.0762 88.9946 85.0004 97.0704 85.0004 106.997C85.0004 116.923 93.0762 124.999 103.003 124.999C112.929 124.999 121.005 116.923 121.005 106.997V43L66.9982 53.8013ZM57.9972 124.999C53.034 124.999 48.9961 120.961 48.9961 115.998C48.9961 111.035 53.034 106.997 57.9972 106.997C62.9603 106.997 66.9982 111.035 66.9982 115.998C66.9982 120.961 62.9603 124.999 57.9972 124.999ZM103.003 115.998C98.0393 115.998 94.0015 111.96 94.0015 106.997C94.0015 102.034 98.0393 97.9957 103.003 97.9957C107.966 97.9957 112.004 102.034 112.004 106.997C112.004 111.96 107.966 115.998 103.003 115.998Z" fill="#FF6666"/>
</svg>
