<svg width="962" height="745" viewBox="0 0 962 745" fill="none" xmlns="http://www.w3.org/2000/svg">
<g clip-path="url(#clip0)">
<path d="M476.28 600.087C415.328 600.087 356.262 578.953 309.146 540.288C262.03 501.622 229.779 447.817 217.888 388.039C205.997 328.261 215.202 266.21 243.934 212.458C272.667 158.706 319.149 116.579 375.461 93.2552C431.773 69.9312 494.431 66.8532 552.758 84.5458C611.085 102.238 661.473 139.607 695.336 190.284C729.199 240.961 744.442 301.811 738.467 362.466C732.493 423.122 705.671 479.829 662.572 522.926C638.164 547.466 609.132 566.921 577.155 580.166C545.178 593.41 510.892 600.181 476.28 600.087ZM476.28 74.9168C331.956 74.9168 214.541 192.327 214.541 336.644C214.541 480.96 331.956 598.371 476.28 598.371C620.604 598.371 738.02 480.96 738.02 336.644C738.02 192.327 620.604 74.9168 476.28 74.9168Z" fill="#3F3D56"/>
<path d="M498.471 570.996C493.593 589.03 476.882 600.199 476.882 600.199C476.882 600.199 468.081 582.129 472.96 564.095C477.839 546.062 494.549 534.893 494.549 534.893C494.549 534.893 503.35 552.963 498.471 570.996Z" fill="#F9D342"/>
<path d="M454.089 570.996C458.967 589.03 475.678 600.199 475.678 600.199C475.678 600.199 484.479 582.129 479.6 564.095C474.722 546.062 458.011 534.893 458.011 534.893C458.011 534.893 449.21 552.963 454.089 570.996Z" fill="#F9D342"/>
<path d="M461.258 567.121C474.645 580.152 476.28 600.184 476.28 600.184C476.28 600.184 456.21 599.088 442.823 586.057C429.436 573.026 427.801 552.994 427.801 552.994C427.801 552.994 447.87 554.089 461.258 567.121Z" fill="#3F3D56"/>
<path d="M491.303 567.121C477.915 580.152 476.28 600.184 476.28 600.184C476.28 600.184 496.35 599.088 509.737 586.057C523.125 573.026 524.76 552.994 524.76 552.994C524.76 552.994 504.69 554.089 491.303 567.121Z" fill="#3F3D56"/>
<path d="M454.089 103.284C458.967 85.2506 475.678 74.0818 475.678 74.0818C475.678 74.0818 484.479 92.1515 479.6 110.185C474.722 128.219 458.011 139.388 458.011 139.388C458.011 139.388 449.21 121.318 454.089 103.284Z" fill="#F9D342"/>
<path d="M498.471 103.284C493.593 85.2506 476.882 74.0818 476.882 74.0818C476.882 74.0818 468.081 92.1515 472.96 110.185C477.839 128.219 494.549 139.388 494.549 139.388C494.549 139.388 503.35 121.318 498.471 103.284Z" fill="#F9D342"/>
<path d="M491.303 107.16C477.915 94.1286 476.28 74.0964 476.28 74.0964C476.28 74.0964 496.35 75.1922 509.737 88.2235C523.125 101.255 524.76 121.287 524.76 121.287C524.76 121.287 504.69 120.191 491.303 107.16Z" fill="#3F3D56"/>
<path d="M461.258 107.16C474.645 94.1286 476.28 74.0964 476.28 74.0964C476.28 74.0964 456.21 75.1922 442.823 88.2235C429.436 101.255 427.801 121.287 427.801 121.287C427.801 121.287 447.87 120.191 461.258 107.16Z" fill="#3F3D56"/>
<path d="M353.634 11.4587H12.5532V358.283H353.634V11.4587Z" fill="#F9D342"/>
<path d="M340.746 20.2617H36.9035H19.6819V38.713V345H36.9035V38.713H340.746V20.2617Z" fill="#3F3D56"/>
<path opacity="0.3" d="M340.746 20.2617H36.9035H19.6819V38.713V345H36.9035V38.713H340.746V20.2617Z" fill="black"/>
<path opacity="0.1" d="M291.541 38.7129H278.009H36.9036V82.9954H278.009V345H340.746V38.7129H291.541Z" fill="black"/>
<path d="M0 0.580566V364.682H360.428V0.580566H0ZM340.746 345H19.6821V20.2617H340.746V345Z" fill="#3F3D56"/>
<path d="M252.943 378.105C252.943 378.105 269.241 409.681 278.409 416.811C287.577 423.941 263.639 432.599 263.639 432.599L235.627 388.8L252.943 378.105Z" fill="#A0616A"/>
<path d="M154.136 301.202C154.136 301.202 230.024 321.065 236.645 334.306C243.266 347.548 263.639 379.633 263.639 379.633L233.589 403.57L204.049 359.261L122.559 322.593L154.136 301.202Z" fill="#2F2E41"/>
<path d="M261.092 419.867C261.092 419.867 253.962 413.755 251.925 417.83C249.887 421.904 243.776 442.785 243.776 442.785C243.776 442.785 252.434 450.933 270.26 445.84C270.26 445.84 274.844 442.275 281.974 445.84C289.105 449.405 315.589 442.275 314.57 430.562C313.552 418.848 286.558 419.867 286.558 419.867C286.558 419.867 275.188 407.13 273.743 411.97C272.297 416.811 274.334 417.32 274.334 417.32C274.334 417.32 265.167 426.997 261.092 419.867Z" fill="#2F2E41"/>
<path d="M174 409.172L168.906 451.952H193.863C193.863 451.952 191.826 418.848 192.335 414.774C192.844 410.7 174 409.172 174 409.172Z" fill="#A0616A"/>
<path d="M188.26 314.953C188.26 314.953 202.012 335.325 193.863 336.853C185.714 338.38 179.093 314.953 179.093 314.953H188.26Z" fill="#A0616A"/>
<path d="M84.3604 312.916C84.3604 312.916 74.1741 342.964 114.41 351.113C154.646 359.261 166.869 365.882 166.869 365.882L171.962 417.83L207.105 419.867C207.105 419.867 223.912 340.927 202.012 330.741C180.111 320.555 133.764 308.842 133.764 308.842L84.3604 312.916Z" fill="#2F2E41"/>
<path d="M171.962 445.331C171.962 445.331 179.093 441.766 180.112 441.766C180.112 441.766 184.588 431.441 192.791 432.53L210.67 458.573C210.67 458.573 237.664 477.926 218.819 483.019C199.975 488.112 185.205 484.037 185.205 484.037L177.565 478.435C177.565 478.435 178.584 472.833 171.962 473.852C171.962 473.852 158.211 468.249 158.72 464.175C159.23 460.101 170.048 442.366 170.048 442.366L171.962 445.331Z" fill="#2F2E41"/>
<path d="M176.291 213.859C187.543 213.859 196.664 204.739 196.664 193.488C196.664 182.237 187.543 173.116 176.291 173.116C165.04 173.116 155.919 182.237 155.919 193.488C155.919 204.739 165.04 213.859 176.291 213.859Z" fill="#A0616A"/>
<path d="M159.739 187.122C159.739 187.122 141.404 200.363 137.838 200.873C134.273 201.382 154.646 226.337 154.646 226.337C154.646 226.337 164.323 210.549 170.435 208.512C176.546 206.475 159.739 187.122 159.739 187.122Z" fill="#A0616A"/>
<path d="M145.987 203.928C145.987 203.928 138.348 193.742 133.764 193.742C129.18 193.742 87.9256 198.326 84.3604 232.448C80.7952 266.571 82.8324 326.158 82.8324 326.158C82.8324 326.158 79.7765 311.388 113.901 317.5C113.901 317.5 154.646 308.842 161.776 308.842C168.906 308.842 171.962 236.013 171.962 236.013L160.366 218.035C160.366 218.035 155.155 227.865 145.987 203.928Z" fill="#FF6666"/>
<path d="M164.323 231.939L171.962 236.014L181.13 292.035L193.863 321.065C193.863 321.065 180.111 316.331 179.093 322.008L158.72 292.545L164.323 231.939Z" fill="#FF6666"/>
<path d="M171.711 176.781L182.794 178.165C182.583 180.421 182.642 183.215 184.64 184.281C185.58 184.783 186.772 184.757 187.604 185.421C189.607 187.018 187.648 190.451 188.779 192.749L192.02 193.607C192.41 194.336 192.939 194.98 193.579 195.503C194.218 196.026 194.955 196.418 195.746 196.655C196.537 196.892 197.368 196.971 198.189 196.886C199.011 196.801 199.808 196.555 200.534 196.161C202.712 194.853 203.822 192.354 204.802 190.01C205.973 187.21 207.168 184.201 206.582 181.223C205.953 178.023 203.338 175.364 203.22 172.105C203.167 170.647 203.474 168.83 202.245 168.044C201.68 167.778 201.071 167.617 200.448 167.567C197.617 166.976 196.04 164.045 193.929 162.069C189.504 157.926 182.708 158.035 176.657 158.396C174.925 158.402 173.206 158.702 171.574 159.282C169.729 160.207 168.098 161.508 166.786 163.1C163.54 166.561 160.381 170.186 158.24 174.42C156.1 178.654 155.045 183.601 156.209 188.2C156.094 187.757 159.945 184.861 160.425 184.397C161.93 182.94 162.067 182.244 162.882 180.567C164.78 176.657 167.421 176.245 171.711 176.781Z" fill="#2F2E41"/>
<path opacity="0.1" d="M139.112 242.379L140.64 278.03L163.295 304.597L142.677 274.974L139.112 242.379Z" fill="black"/>
<path opacity="0.1" d="M98.3669 252.056L116.193 293.309L139.112 312.152L114.664 295.346L98.3669 252.056Z" fill="black"/>
<path d="M195.195 285.493L205.966 292.902C206.503 293.324 206.878 293.919 207.027 294.585C207.177 295.251 207.093 295.949 206.789 296.561L205.349 299.533L205.682 299.763L204.046 303.14L203.712 302.911L191.848 327.393C191.724 327.715 191.53 328.005 191.28 328.242C191.03 328.479 190.729 328.656 190.401 328.761C190.073 328.865 189.725 328.895 189.384 328.847C189.042 328.799 188.716 328.676 188.43 328.485L178.307 321.522C177.691 321.036 177.26 320.353 177.087 319.586C176.915 318.82 177.012 318.018 177.361 317.315L192.341 286.404C192.444 286.135 192.606 285.893 192.815 285.695C193.024 285.498 193.275 285.35 193.549 285.262C193.823 285.175 194.113 285.15 194.398 285.19C194.683 285.23 194.956 285.333 195.195 285.493Z" fill="#3F3D56"/>
<path d="M178.477 317.044L190.07 325.019L205.193 293.812L193.6 285.837L178.477 317.044Z" fill="white"/>
<path d="M173.444 310.175C173.444 310.175 193.646 324.174 186.606 328.553C179.565 332.931 164.9 313.499 164.9 313.499L173.444 310.175Z" fill="#A0616A"/>
<path d="M113.391 206.475C113.391 206.475 86.9069 214.114 94.5466 237.542C96.3895 243.193 98.6177 249.259 100.938 255.211C108.237 273.933 116.447 291.526 116.447 291.526L139.468 312.34L170.434 321.065L174 318.009C174 318.009 175.018 308.333 170.434 307.314C165.851 306.295 158.72 302.221 158.72 302.221L140.385 275.229C140.385 275.229 139.876 208.003 113.391 206.475Z" fill="#FF6666"/>
<path d="M616.786 607.624H949.746V269.058L616.786 269.058V607.624Z" fill="#F9D342"/>
<path d="M629.367 277.652H925.974H942.787V295.664V594.659H925.974V295.664H629.367V277.652Z" fill="#3F3D56"/>
<path opacity="0.3" d="M629.367 277.652H925.974H942.787V295.664V594.659H925.974V295.664H629.367V277.652Z" fill="black"/>
<path opacity="0.1" d="M677.401 295.664H690.61H925.974V338.891H690.61V594.659H629.367V295.664H677.401Z" fill="black"/>
<path d="M610.153 258.439V613.871H962V258.439H610.153ZM629.367 277.651H942.787V594.658H629.367V277.651Z" fill="#3F3D56"/>
<path d="M815.747 426.01C808.171 413.209 793.181 412.612 793.181 412.612C793.181 412.612 778.575 410.745 769.205 430.241C760.471 448.414 748.418 465.96 767.264 470.214L770.669 459.619L772.777 471.003C775.46 471.196 778.152 471.242 780.841 471.14C801.024 470.489 820.245 471.331 819.626 464.089C818.803 454.461 823.038 438.328 815.747 426.01Z" fill="#2F2E41"/>
<path d="M761.138 529.329L759.543 558.019L806.299 562.801L807.894 533.048L791.953 522.954L761.138 529.329Z" fill="#A0616A"/>
<path d="M886.795 592.288C885.392 578.734 829.727 572.582 816.349 571.297L811.347 568.379L809.753 551.378C809.753 551.378 760.34 547.128 756.621 546.596C752.902 546.065 749.714 552.972 749.714 554.566C749.714 555.718 749.019 563.944 746.227 568.82C740.199 573.663 721.82 588.904 721.82 594.679C721.82 601.585 736.431 688.452 736.431 688.452L738.025 706.516L752.902 709.173L751.839 652.855C751.839 652.855 757.152 620.446 749.714 611.414V607.695C749.714 607.695 771.531 602.011 779.22 595.823C781.449 595.344 787.71 594.165 791.168 595.19C791.642 595.47 792.189 595.756 792.797 596.048C792.875 596.118 792.948 596.193 793.017 596.272L793.076 596.181C803.024 600.836 828.54 606.708 838.976 605.039C847.024 603.81 855.253 605.306 862.354 609.289C856.509 616.727 860.76 637.979 860.76 637.979L861.291 683.67L868.73 692.702H878.825V667.732C878.825 667.732 888.389 607.695 886.795 592.288Z" fill="#2F2E41"/>
<path d="M788.5 461.058C798.184 461.058 806.034 453.208 806.034 443.525C806.034 433.842 798.184 425.992 788.5 425.992C778.817 425.992 770.967 433.842 770.967 443.525C770.967 453.208 778.817 461.058 788.5 461.058Z" fill="#A0616A"/>
<path d="M777.874 454.682C777.874 454.682 780.53 466.371 776.811 467.433C773.869 468.408 771.023 469.653 768.31 471.153L764.06 484.966V498.78L815.598 504.624L817.192 499.842V492.936L811.347 482.31L808.69 479.653C808.69 479.653 797.001 466.902 799.658 454.682H777.874Z" fill="#A0616A"/>
<path d="M823.833 496.92C823.833 496.92 825.427 515.516 823.833 524.016C822.239 532.517 822.77 545.268 822.77 545.268L811.081 543.143V514.453L813.738 499.046L823.833 496.92Z" fill="#A0616A"/>
<path d="M795.016 423.515C801.002 423.515 805.854 418.663 805.854 412.677C805.854 406.692 801.002 401.84 795.016 401.84C789.03 401.84 784.178 406.692 784.178 412.677C784.178 418.663 789.03 423.515 795.016 423.515Z" fill="#2F2E41"/>
<path d="M783.037 409.825C783.037 407.149 784.028 404.567 785.818 402.577C787.609 400.587 790.072 399.33 792.734 399.048C792.355 399.008 791.974 398.988 791.593 398.988C788.719 398.988 785.962 400.129 783.929 402.162C781.897 404.194 780.755 406.951 780.755 409.825C780.755 412.7 781.897 415.456 783.929 417.489C785.962 419.521 788.719 420.663 791.593 420.663C791.974 420.663 792.355 420.642 792.734 420.602C790.072 420.32 787.609 419.063 785.818 417.074C784.028 415.084 783.037 412.502 783.037 409.825Z" fill="#2F2E41"/>
<path d="M812.397 424.776L797.589 417.02L777.138 420.193L772.907 438.88L783.44 438.475L786.382 431.61V438.361L791.242 438.174L794.063 427.244L795.825 438.88L813.103 438.527L812.397 424.776Z" fill="#2F2E41"/>
<path d="M752.075 688.674C752.075 688.674 759.615 692.222 761.832 693.553C764.05 694.883 772.92 692.222 771.146 700.205C769.372 708.187 761.832 715.726 761.832 715.726C761.832 715.726 758.284 719.718 758.284 722.379C758.284 725.039 749.414 745.439 738.77 744.552C728.126 743.665 729.9 733.022 729.9 733.022L732.118 721.492C732.118 721.492 736.553 701.979 737.44 702.422C738.327 702.866 740.544 705.97 740.544 705.97C740.544 705.97 751.632 701.535 752.075 688.674Z" fill="#FF6666"/>
<path d="M862.649 675.392C862.649 675.392 855.11 678.94 852.892 680.27C850.675 681.601 841.805 678.94 843.579 686.922C845.353 694.905 852.892 702.444 852.892 702.444C852.892 702.444 856.44 706.435 856.44 709.096C856.44 711.757 865.31 732.157 875.954 731.27C886.598 730.383 884.824 719.74 884.824 719.74L882.607 708.209C882.607 708.209 878.172 688.696 877.285 689.14C876.398 689.583 874.18 692.688 874.18 692.688C874.18 692.688 863.093 688.253 862.649 675.392Z" fill="#FF6666"/>
<path d="M804.193 548.984V544.768H803.256V542.894C803.256 542.463 803.171 542.037 803.006 541.639C802.841 541.241 802.6 540.879 802.295 540.575C801.991 540.27 801.629 540.029 801.231 539.864C800.833 539.699 800.407 539.614 799.976 539.614H788.732C787.862 539.614 787.028 539.96 786.413 540.575C785.798 541.19 785.452 542.024 785.452 542.894V574.283C785.452 575.153 785.798 575.987 786.413 576.602C787.028 577.217 787.862 577.562 788.732 577.562H799.976C800.846 577.562 801.68 577.217 802.295 576.602C802.91 575.987 803.256 575.153 803.256 574.283V554.606H804.193V550.39H803.256V548.984H804.193Z" fill="#FF6666"/>
<path d="M794.822 550.858C795.857 550.858 796.696 550.019 796.696 548.984C796.696 547.949 795.857 547.11 794.822 547.11C793.787 547.11 792.948 547.949 792.948 548.984C792.948 550.019 793.787 550.858 794.822 550.858Z" fill="#3F3D56"/>
<path d="M747.854 487.888L738.291 527.204C738.291 527.204 734.571 535.705 743.072 541.018C751.574 546.331 770.701 553.237 770.701 553.237C770.701 553.237 787.703 576.614 789.829 567.051C791.954 557.488 777.077 545.268 777.077 545.268L751.042 528.798L761.137 501.171L747.854 487.888Z" fill="#A0616A"/>
<path d="M816.926 537.299C816.926 537.299 824.896 536.236 824.364 545.268C823.833 554.3 813.207 555.363 813.207 555.363C813.207 555.363 808.425 575.552 801.518 571.833C794.61 568.114 805.237 547.925 805.237 547.925L814.269 541.018L816.926 537.299Z" fill="#A0616A"/>
<path d="M765.653 484.435L774.155 466.902L757.152 472.747C757.152 472.747 747.588 477.528 747.057 488.685C746.526 499.843 759.278 505.687 759.278 505.687C759.278 505.687 761.403 521.626 760.34 523.751C759.278 525.876 760.34 534.377 760.34 534.377C760.34 534.377 780.796 528.798 790.891 535.705C800.986 542.612 809.222 538.627 809.222 538.627C809.222 538.627 808.69 525.345 812.941 523.219C817.192 521.094 820.911 511 817.192 504.624C817.192 504.624 825.693 505.687 825.161 497.717C824.63 489.748 820.379 482.841 813.472 479.653C806.565 476.466 805.802 475.956 805.802 475.956L815.598 493.998V498.78C815.598 498.78 798.256 487.711 781.099 486.789C775.501 486.533 770.005 488.342 765.654 491.873L765.653 491.873V484.435Z" fill="#2F2E41"/>
</g>
<defs>
<clipPath id="clip0">
<rect width="962" height="744" fill="white" transform="translate(0 0.580566)"/>
</clipPath>
</defs>
</svg>
