<svg width="962" height="744" viewBox="0 0 962 744" fill="none" xmlns="http://www.w3.org/2000/svg">
<path d="M476.28 599.506C415.328 599.506 356.262 578.373 309.146 539.707C262.03 501.042 229.779 447.236 217.888 387.458C205.997 327.681 215.202 265.63 243.934 211.878C272.667 158.126 319.149 115.999 375.461 92.6746C431.773 69.3506 494.431 66.2727 552.758 83.9652C611.085 101.658 661.473 139.026 695.336 189.703C729.199 240.38 744.442 301.23 738.467 361.886C732.493 422.541 705.671 479.248 662.572 522.346C638.164 546.885 609.132 566.341 577.155 579.585C545.178 592.83 510.892 599.601 476.28 599.506ZM476.28 74.3362C331.956 74.3362 214.541 191.746 214.541 336.063C214.541 480.38 331.956 597.79 476.28 597.79C620.604 597.79 738.02 480.38 738.02 336.063C738.02 191.746 620.604 74.3362 476.28 74.3362Z" fill="#3F3D56"/>
<path d="M498.471 570.416C493.593 588.45 476.882 599.618 476.882 599.618C476.882 599.618 468.081 581.549 472.96 563.515C477.839 545.481 494.549 534.312 494.549 534.312C494.549 534.312 503.35 552.382 498.471 570.416Z" fill="#F9D342"/>
<path d="M454.089 570.416C458.967 588.45 475.678 599.618 475.678 599.618C475.678 599.618 484.479 581.549 479.6 563.515C474.722 545.481 458.011 534.312 458.011 534.312C458.011 534.312 449.21 552.382 454.089 570.416Z" fill="#F9D342"/>
<path d="M461.258 566.54C474.645 579.571 476.28 599.604 476.28 599.604C476.28 599.604 456.21 598.508 442.823 585.477C429.436 572.445 427.801 552.413 427.801 552.413C427.801 552.413 447.87 553.509 461.258 566.54Z" fill="#3F3D56"/>
<path d="M491.303 566.54C477.915 579.571 476.28 599.604 476.28 599.604C476.28 599.604 496.35 598.508 509.737 585.477C523.125 572.445 524.76 552.413 524.76 552.413C524.76 552.413 504.69 553.509 491.303 566.54Z" fill="#3F3D56"/>
<path d="M454.089 102.704C458.967 84.67 475.678 73.5012 475.678 73.5012C475.678 73.5012 484.479 91.571 479.6 109.605C474.722 127.639 458.011 138.807 458.011 138.807C458.011 138.807 449.21 120.738 454.089 102.704Z" fill="#F9D342"/>
<path d="M498.471 102.704C493.593 84.67 476.882 73.5012 476.882 73.5012C476.882 73.5012 468.081 91.571 472.96 109.605C477.839 127.639 494.549 138.807 494.549 138.807C494.549 138.807 503.35 120.738 498.471 102.704Z" fill="#F9D342"/>
<path d="M491.303 106.579C477.915 93.548 476.28 73.5159 476.28 73.5159C476.28 73.5159 496.35 74.6116 509.737 87.643C523.125 100.674 524.76 120.706 524.76 120.706C524.76 120.706 504.69 119.611 491.303 106.579Z" fill="#3F3D56"/>
<path d="M461.258 106.579C474.645 93.548 476.28 73.5159 476.28 73.5159C476.28 73.5159 456.21 74.6116 442.823 87.643C429.436 100.674 427.801 120.706 427.801 120.706C427.801 120.706 447.87 119.611 461.258 106.579Z" fill="#3F3D56"/>
<path d="M353.634 10.8782H12.5532V357.702H353.634V10.8782Z" fill="#F9D342"/>
<path d="M340.746 19.6812H36.9035H19.6819V38.1325V344.42H36.9035V38.1325H340.746V19.6812Z" fill="#3F3D56"/>
<path opacity="0.3" d="M340.746 19.6812H36.9035H19.6819V38.1325V344.42H36.9035V38.1325H340.746V19.6812Z" fill="black"/>
<path opacity="0.1" d="M291.541 38.1323H278.009H36.9036V82.4148H278.009V344.42H340.746V38.1323H291.541Z" fill="black"/>
<path d="M0 0V364.101H360.428V0H0ZM340.746 344.42H19.6821V19.6812H340.746V344.42Z" fill="#3F3D56"/>
<path d="M252.943 377.525C252.943 377.525 269.241 409.101 278.409 416.231C287.577 423.361 263.639 432.019 263.639 432.019L235.627 388.22L252.943 377.525Z" fill="#A0616A"/>
<path d="M154.136 300.622C154.136 300.622 230.024 320.484 236.645 333.726C243.266 346.967 263.639 379.052 263.639 379.052L233.589 402.989L204.049 358.681L122.559 322.012L154.136 300.622Z" fill="#2F2E41"/>
<path d="M261.092 419.286C261.092 419.286 253.962 413.175 251.925 417.249C249.887 421.323 243.776 442.204 243.776 442.204C243.776 442.204 252.434 450.353 270.26 445.26C270.26 445.26 274.844 441.695 281.974 445.26C289.105 448.825 315.589 441.695 314.57 429.981C313.552 418.268 286.558 419.286 286.558 419.286C286.558 419.286 275.188 406.549 273.743 411.39C272.297 416.231 274.334 416.74 274.334 416.74C274.334 416.74 265.167 426.416 261.092 419.286Z" fill="#2F2E41"/>
<path d="M174 408.591L168.906 451.372H193.863C193.863 451.372 191.826 418.268 192.335 414.193C192.844 410.119 174 408.591 174 408.591Z" fill="#A0616A"/>
<path d="M188.26 314.373C188.26 314.373 202.012 334.744 193.863 336.272C185.714 337.8 179.093 314.373 179.093 314.373H188.26Z" fill="#A0616A"/>
<path d="M84.3604 312.336C84.3604 312.336 74.1741 342.384 114.41 350.532C154.646 358.681 166.869 365.302 166.869 365.302L171.962 417.249L207.105 419.286C207.105 419.286 223.912 340.346 202.012 330.161C180.111 319.975 133.764 308.261 133.764 308.261L84.3604 312.336Z" fill="#2F2E41"/>
<path d="M171.962 444.751C171.962 444.751 179.093 441.186 180.112 441.186C180.112 441.186 184.588 430.861 192.791 431.949L210.67 457.992C210.67 457.992 237.664 477.345 218.819 482.438C199.975 487.531 185.205 483.457 185.205 483.457L177.565 477.855C177.565 477.855 178.584 472.253 171.962 473.271C171.962 473.271 158.211 467.669 158.72 463.595C159.23 459.52 170.048 441.786 170.048 441.786L171.962 444.751Z" fill="#2F2E41"/>
<path d="M176.291 213.279C187.543 213.279 196.664 204.158 196.664 192.907C196.664 181.656 187.543 172.536 176.291 172.536C165.04 172.536 155.919 181.656 155.919 192.907C155.919 204.158 165.04 213.279 176.291 213.279Z" fill="#A0616A"/>
<path d="M159.739 186.541C159.739 186.541 141.404 199.783 137.838 200.292C134.273 200.801 154.646 225.757 154.646 225.757C154.646 225.757 164.323 209.969 170.435 207.931C176.546 205.894 159.739 186.541 159.739 186.541Z" fill="#A0616A"/>
<path d="M145.987 203.348C145.987 203.348 138.348 193.162 133.764 193.162C129.18 193.162 87.9256 197.745 84.3604 231.868C80.7952 265.99 82.8324 325.577 82.8324 325.577C82.8324 325.577 79.7765 310.808 113.901 316.919C113.901 316.919 154.646 308.261 161.776 308.261C168.906 308.261 171.962 235.433 171.962 235.433L160.366 217.454C160.366 217.454 155.155 227.284 145.987 203.348Z" fill="#4BC6B9"/>
<path d="M164.323 231.359L171.962 235.433L181.13 291.455L193.863 320.484C193.863 320.484 180.111 315.75 179.093 321.428L158.72 291.964L164.323 231.359Z" fill="#4BC6B9"/>
<path d="M171.711 176.2L182.794 177.585C182.583 179.84 182.642 182.634 184.64 183.701C185.58 184.202 186.772 184.177 187.604 184.841C189.607 186.437 187.648 189.871 188.779 192.169L192.02 193.026C192.41 193.755 192.939 194.399 193.579 194.923C194.218 195.446 194.955 195.837 195.746 196.074C196.537 196.312 197.368 196.39 198.189 196.305C199.011 196.221 199.808 195.974 200.534 195.58C202.712 194.272 203.822 191.773 204.802 189.429C205.973 186.629 207.168 183.62 206.582 180.642C205.953 177.443 203.338 174.784 203.22 171.525C203.167 170.067 203.474 168.249 202.245 167.463C201.68 167.198 201.071 167.036 200.448 166.986C197.617 166.395 196.04 163.465 193.929 161.488C189.504 157.345 182.708 157.454 176.657 157.815C174.925 157.822 173.206 158.121 171.574 158.701C169.729 159.627 168.098 160.927 166.786 162.52C163.54 165.981 160.381 169.606 158.24 173.839C156.1 178.073 155.045 183.02 156.209 187.619C156.094 187.177 159.945 184.281 160.425 183.817C161.93 182.359 162.067 181.663 162.882 179.986C164.78 176.076 167.421 175.664 171.711 176.2Z" fill="#2F2E41"/>
<path opacity="0.1" d="M139.112 241.799L140.64 277.449L163.295 304.016L142.677 274.394L139.112 241.799Z" fill="black"/>
<path opacity="0.1" d="M98.3669 251.476L116.193 292.728L139.112 311.572L114.664 294.765L98.3669 251.476Z" fill="black"/>
<path d="M195.195 284.912L205.966 292.321C206.503 292.744 206.878 293.338 207.027 294.004C207.177 294.671 207.093 295.368 206.789 295.98L205.349 298.953L205.682 299.182L204.046 302.56L203.712 302.33L191.848 326.813C191.724 327.135 191.53 327.425 191.28 327.661C191.03 327.898 190.729 328.075 190.401 328.18C190.073 328.285 189.725 328.314 189.384 328.267C189.042 328.219 188.716 328.095 188.43 327.904L178.307 320.942C177.691 320.456 177.26 319.772 177.087 319.006C176.915 318.24 177.012 317.438 177.361 316.734L192.341 285.823C192.444 285.555 192.606 285.313 192.815 285.115C193.024 284.917 193.275 284.769 193.549 284.682C193.823 284.594 194.113 284.569 194.398 284.609C194.683 284.649 194.956 284.753 195.195 284.912Z" fill="#3F3D56"/>
<path d="M178.477 316.464L190.07 324.438L205.193 293.231L193.6 285.257L178.477 316.464Z" fill="white"/>
<path d="M173.444 309.594C173.444 309.594 193.646 323.593 186.606 327.972C179.565 332.351 164.9 312.918 164.9 312.918L173.444 309.594Z" fill="#A0616A"/>
<path d="M113.391 205.894C113.391 205.894 86.9069 213.534 94.5466 236.961C96.3895 242.612 98.6177 248.678 100.938 254.63C108.237 273.353 116.447 290.946 116.447 290.946L139.468 311.759L170.434 320.484L174 317.429C174 317.429 175.018 307.752 170.434 306.734C165.851 305.715 158.72 301.641 158.72 301.641L140.385 274.648C140.385 274.648 139.876 207.422 113.391 205.894Z" fill="#4BC6B9"/>
<path d="M616.786 607.044H949.746V268.478L616.786 268.478V607.044Z" fill="#F9D342"/>
<path d="M629.367 277.071H925.974H942.787V295.083V594.078H925.974V295.083H629.367V277.071Z" fill="#3F3D56"/>
<path opacity="0.3" d="M629.367 277.071H925.974H942.787V295.083V594.078H925.974V295.083H629.367V277.071Z" fill="black"/>
<path opacity="0.1" d="M677.401 295.083H690.61H925.974V338.311H690.61V594.078H629.367V295.083H677.401Z" fill="black"/>
<path d="M610.153 257.858V613.29H962V257.858H610.153ZM629.367 277.071H942.787V594.078H629.367V277.071Z" fill="#3F3D56"/>
<path d="M815.747 425.43C808.171 412.629 793.181 412.032 793.181 412.032C793.181 412.032 778.575 410.164 769.205 429.661C760.471 447.833 748.418 465.379 767.264 469.633L770.669 459.038L772.777 470.422C775.46 470.615 778.152 470.661 780.841 470.56C801.024 469.908 820.245 470.751 819.626 463.508C818.803 453.881 823.038 437.747 815.747 425.43Z" fill="#2F2E41"/>
<path d="M761.138 528.748L759.543 557.439L806.299 562.22L807.894 532.468L791.953 522.374L761.138 528.748Z" fill="#A0616A"/>
<path d="M886.795 591.707C885.392 578.154 829.727 572.001 816.349 570.717L811.347 567.799L809.753 550.798C809.753 550.798 760.34 546.547 756.621 546.016C752.902 545.485 749.714 552.391 749.714 553.985C749.714 555.137 749.019 563.363 746.227 568.239C740.199 573.083 721.82 588.324 721.82 594.098C721.82 601.005 736.431 687.872 736.431 687.872L738.025 705.936L752.902 708.592L751.839 652.275C751.839 652.275 757.152 619.866 749.714 610.834V607.115C749.714 607.115 771.531 601.431 779.22 595.242C781.449 594.763 787.71 593.584 791.168 594.61C791.642 594.889 792.189 595.176 792.797 595.468C792.875 595.538 792.948 595.613 793.017 595.692L793.076 595.6C803.024 600.256 828.54 606.128 838.976 604.458C847.024 603.23 855.253 604.726 862.354 608.709C856.509 616.147 860.76 637.399 860.76 637.399L861.291 683.09L868.73 692.122H878.825V667.151C878.825 667.151 888.389 607.115 886.795 591.707Z" fill="#2F2E41"/>
<path d="M788.5 460.477C798.184 460.477 806.034 452.628 806.034 442.945C806.034 433.262 798.184 425.412 788.5 425.412C778.817 425.412 770.967 433.262 770.967 442.945C770.967 452.628 778.817 460.477 788.5 460.477Z" fill="#A0616A"/>
<path d="M777.874 454.102C777.874 454.102 780.53 465.79 776.811 466.853C773.869 467.828 771.023 469.073 768.31 470.572L764.06 484.386V498.199L815.598 504.043L817.192 499.262V492.355L811.347 481.729L808.69 479.073C808.69 479.073 797.001 466.322 799.658 454.102H777.874Z" fill="#A0616A"/>
<path d="M823.833 496.34C823.833 496.34 825.427 514.935 823.833 523.436C822.239 531.937 822.77 544.688 822.77 544.688L811.081 542.562V513.873L813.738 498.465L823.833 496.34Z" fill="#A0616A"/>
<path d="M795.016 422.935C801.002 422.935 805.854 418.082 805.854 412.097C805.854 406.111 801.002 401.259 795.016 401.259C789.03 401.259 784.178 406.111 784.178 412.097C784.178 418.082 789.03 422.935 795.016 422.935Z" fill="#2F2E41"/>
<path d="M783.037 409.245C783.037 406.568 784.028 403.986 785.818 401.996C787.609 400.007 790.072 398.75 792.734 398.468C792.355 398.428 791.974 398.407 791.593 398.407C788.719 398.407 785.962 399.549 783.929 401.581C781.897 403.614 780.755 406.37 780.755 409.245C780.755 412.119 781.897 414.876 783.929 416.908C785.962 418.941 788.719 420.082 791.593 420.082C791.974 420.082 792.355 420.062 792.734 420.022C790.072 419.74 787.609 418.483 785.818 416.493C784.028 414.503 783.037 411.921 783.037 409.245Z" fill="#2F2E41"/>
<path d="M812.397 424.196L797.589 416.439L777.138 419.613L772.907 438.299L783.44 437.894L786.382 431.029V437.781L791.242 437.594L794.063 426.664L795.825 438.299L813.103 437.946L812.397 424.196Z" fill="#2F2E41"/>
<path d="M752.075 688.094C752.075 688.094 759.615 691.642 761.832 692.972C764.05 694.302 772.92 691.642 771.146 699.624C769.372 707.607 761.832 715.146 761.832 715.146C761.832 715.146 758.284 719.137 758.284 721.798C758.284 724.459 749.414 744.859 738.77 743.972C728.126 743.085 729.9 732.441 729.9 732.441L732.118 720.911C732.118 720.911 736.553 701.398 737.44 701.841C738.327 702.285 740.544 705.389 740.544 705.389C740.544 705.389 751.632 700.955 752.075 688.094Z" fill="#4BC6B9"/>
<path d="M862.649 674.812C862.649 674.812 855.11 678.359 852.892 679.69C850.675 681.02 841.805 678.359 843.579 686.342C845.353 694.324 852.892 701.864 852.892 701.864C852.892 701.864 856.44 705.855 856.44 708.516C856.44 711.177 865.31 731.577 875.954 730.69C886.598 729.803 884.824 719.159 884.824 719.159L882.607 707.629C882.607 707.629 878.172 688.116 877.285 688.559C876.398 689.003 874.18 692.107 874.18 692.107C874.18 692.107 863.093 687.672 862.649 674.812Z" fill="#4BC6B9"/>
<path d="M804.193 548.404V544.187H803.256V542.313C803.256 541.883 803.171 541.456 803.006 541.058C802.841 540.66 802.6 540.299 802.295 539.994C801.991 539.69 801.629 539.448 801.231 539.283C800.833 539.119 800.407 539.034 799.976 539.034H788.732C787.862 539.034 787.028 539.379 786.413 539.994C785.798 540.609 785.452 541.443 785.452 542.313V573.702C785.452 574.572 785.798 575.406 786.413 576.021C787.028 576.636 787.862 576.982 788.732 576.982H799.976C800.846 576.982 801.68 576.636 802.295 576.021C802.91 575.406 803.256 574.572 803.256 573.702V554.026H804.193V549.809H803.256V548.404H804.193Z" fill="#4BC6B9"/>
<path d="M794.822 550.278C795.857 550.278 796.696 549.439 796.696 548.404C796.696 547.369 795.857 546.53 794.822 546.53C793.787 546.53 792.948 547.369 792.948 548.404C792.948 549.439 793.787 550.278 794.822 550.278Z" fill="#3F3D56"/>
<path d="M747.854 487.308L738.291 526.623C738.291 526.623 734.571 535.124 743.072 540.437C751.574 545.75 770.701 552.657 770.701 552.657C770.701 552.657 787.703 576.034 789.829 566.47C791.954 556.907 777.077 544.687 777.077 544.687L751.042 528.217L761.137 500.59L747.854 487.308Z" fill="#A0616A"/>
<path d="M816.926 536.718C816.926 536.718 824.896 535.656 824.364 544.688C823.833 553.72 813.207 554.782 813.207 554.782C813.207 554.782 808.425 574.971 801.518 571.252C794.61 567.533 805.237 547.344 805.237 547.344L814.269 540.437L816.926 536.718Z" fill="#A0616A"/>
<path d="M765.653 483.854L774.155 466.322L757.152 472.166C757.152 472.166 747.588 476.948 747.057 488.105C746.526 499.262 759.278 505.106 759.278 505.106C759.278 505.106 761.403 521.045 760.34 523.17C759.278 525.295 760.34 533.796 760.34 533.796C760.34 533.796 780.796 528.218 790.891 535.124C800.986 542.031 809.222 538.047 809.222 538.047C809.222 538.047 808.69 524.764 812.941 522.639C817.192 520.514 820.911 510.419 817.192 504.044C817.192 504.044 825.693 505.106 825.161 497.137C824.63 489.167 820.379 482.261 813.472 479.073C806.565 475.885 805.802 475.376 805.802 475.376L815.598 493.418V498.199C815.598 498.199 798.256 487.131 781.099 486.208C775.501 485.952 770.005 487.762 765.654 491.292L765.653 491.293V483.854Z" fill="#2F2E41"/>
</svg>
