<svg width="604" height="400" viewBox="0 0 604 400" fill="none" xmlns="http://www.w3.org/2000/svg">
<g clip-path="url(#clip0)">
<path d="M110.542 399.836C175.459 399.836 228.084 397.151 228.084 393.838C228.084 390.526 175.459 387.841 110.542 387.841C45.6255 387.841 -7 390.526 -7 393.838C-7 397.151 45.6255 399.836 110.542 399.836Z" fill="#E6E6E6"/>
<path d="M451.951 242.449L432.462 244.976L431.469 245.104L405.529 248.467L287.125 263.824C282.061 260.323 277.283 256.723 272.846 253.037L408.346 245.028L431.783 243.641L432.766 243.584L451.951 242.449Z" fill="#E6E6E6"/>
<path d="M365.975 146.974L263.027 160.326C266.015 157.785 269.134 155.178 272.385 152.507L365.975 146.974Z" fill="#E6E6E6"/>
<path d="M604 231.068C602.057 234.274 599.967 237.412 597.73 240.482L508.287 228.883L459.076 222.499L507.484 225.363L604 231.068Z" fill="#E6E6E6"/>
<path d="M561.986 275.485C529.063 299.065 485.073 313.462 436.751 313.462C397.226 313.462 351.796 299.924 314.375 280.245C317.335 272.574 321.458 266.356 327.191 263.207C327.334 263.126 327.481 263.045 327.628 262.974C330.077 261.715 332.78 261.032 335.532 260.974C369.258 260.024 365.457 298.024 407.733 245.774C434.024 213.279 463.807 202.097 484.166 205.712C484.541 205.779 484.912 205.85 485.282 205.926C497.081 208.377 505.522 215.929 507.959 227.249C514.609 258.124 495.134 282.824 530.759 275.224C541.067 273.079 551.715 273.168 561.986 275.485Z" fill="#F9D342"/>
<path d="M462.112 312.202C445.543 302.966 435.229 290.356 431.455 274.723C428.653 263.116 429.458 250.055 433.848 235.902C437.103 225.468 441.982 215.612 448.307 206.697C481.86 159.203 484.889 128.256 481.521 110.657C477.828 91.3613 465.831 83.3475 465.71 83.2688L466.228 82.4724C466.352 82.5528 478.665 90.7529 482.447 110.441C484.627 121.791 483.601 134.733 479.398 148.907C474.168 166.547 463.968 186.175 449.083 207.245C442.816 216.078 437.981 225.844 434.756 236.183C427.555 259.396 426.537 291.283 462.574 311.373L462.112 312.202Z" fill="#3F3D56"/>
<path d="M432.802 222.359C419.74 215.078 420.104 203.539 422.709 195.141C423.864 191.437 425.596 187.938 427.841 184.774C439.595 168.135 440.658 157.327 439.479 151.189C438.199 144.525 434.092 141.788 434.05 141.762L434.568 140.965C434.751 141.084 439.056 143.952 440.412 151.01C442.177 160.201 438.209 171.745 428.617 185.322C426.429 188.405 424.741 191.814 423.616 195.422C421.115 203.485 420.759 214.559 433.264 221.53L432.802 222.359Z" fill="#3F3D56"/>
<path d="M491.568 120.709L491.105 119.879C503.61 112.907 503.254 101.833 500.753 93.7714C499.628 90.1627 497.94 86.7541 495.752 83.6713C486.161 70.094 482.192 58.5496 483.957 49.3592C485.313 42.3011 489.618 39.4326 489.801 39.314L490.319 40.11C490.278 40.1374 486.15 42.9095 484.883 49.5758C483.717 55.7098 484.791 66.5092 496.529 83.123C498.773 86.2874 500.505 89.7859 501.661 93.4898C504.266 101.888 504.629 113.427 491.568 120.709Z" fill="#3F3D56"/>
<path d="M519.456 73.4445C517.391 76.6104 514.154 78.8265 510.456 79.6055C506.758 80.3844 502.901 79.6624 499.736 77.5981C496.57 75.5339 494.354 72.2965 493.575 68.5983C492.796 64.9001 493.518 61.0439 495.582 57.8781L495.586 57.8719C499.886 51.2805 521.536 44.1756 521.536 44.1756C521.536 44.1756 523.756 66.8531 519.456 73.4445Z" fill="#FF6666"/>
<path d="M514.23 29.2688C512.166 32.4347 508.929 34.6508 505.231 35.4298C501.532 36.2087 497.676 35.4866 494.51 33.4224C491.345 31.3582 489.128 28.1208 488.349 24.4226C487.571 20.7244 488.293 16.8682 490.357 13.7023L490.361 13.6962C494.661 7.10475 516.311 -0.00012207 516.311 -0.00012207C516.311 -0.00012207 518.531 22.6774 514.23 29.2688Z" fill="#FF6666"/>
<path d="M513.554 162.991C512.642 162.777 491.129 157.775 483.957 161.19C480.938 162.628 478.498 165.05 477.039 168.058C475.579 171.067 475.187 174.482 475.927 177.743C476.666 181.004 478.494 183.916 481.108 186C483.723 188.084 486.969 189.217 490.312 189.211C491.383 189.212 492.45 189.094 493.495 188.859C494.574 188.618 495.622 188.256 496.62 187.781C503.793 184.361 513.464 164.506 513.872 163.66L514.134 163.128L513.554 162.991ZM496.212 186.921C494.579 187.699 492.808 188.148 491.002 188.242C489.196 188.335 487.388 188.072 485.684 187.468C483.979 186.863 482.41 185.928 481.066 184.717C479.723 183.506 478.631 182.042 477.853 180.409C477.075 178.776 476.626 177.006 476.533 175.199C476.439 173.393 476.702 171.586 477.307 169.881C477.911 168.176 478.846 166.607 480.057 165.264C481.268 163.92 482.732 162.828 484.365 162.05C486.037 161.252 488.593 160.953 491.509 160.953C499.489 160.953 510.158 163.209 512.751 163.784C511.132 167.033 502.453 183.948 496.212 186.921V186.921Z" fill="#3F3D56"/>
<path d="M448.815 82.2923C445.146 82.2982 441.609 80.9291 438.9 78.4549C433.029 73.1014 429.544 51.2911 429.398 50.3652L429.306 49.7798L429.898 49.8174C430.833 49.877 452.872 51.3396 458.743 56.6931C460.939 58.6938 462.478 61.3122 463.159 64.2041C463.839 67.096 463.628 70.126 462.554 72.8958C461.479 75.6656 459.592 78.0455 457.14 79.7226C454.688 81.3997 451.786 82.2956 448.815 82.2923H448.815ZM430.435 50.8086C431.042 54.3851 434.432 73.0958 439.54 77.7531C442.24 80.213 445.806 81.5 449.455 81.331C453.104 81.162 456.536 79.5509 458.997 76.8519C461.458 74.1529 462.746 70.587 462.578 66.9383C462.411 63.2897 460.801 59.8569 458.103 57.3949C452.995 52.7381 434.052 51.0846 430.435 50.8086Z" fill="#3F3D56"/>
<path d="M428.973 116.42C430.356 117.681 431.477 119.202 432.272 120.896C433.067 122.59 433.52 124.424 433.606 126.294C433.693 128.163 433.41 130.031 432.774 131.791C432.138 133.551 431.162 135.169 429.901 136.552C428.64 137.935 427.12 139.055 425.425 139.85C423.731 140.646 421.897 141.099 420.028 141.185C418.159 141.272 416.291 140.989 414.531 140.353C412.77 139.717 411.153 138.741 409.77 137.48C403.954 132.178 400.417 109.668 400.417 109.668C400.417 109.668 423.157 111.118 428.973 116.42Z" fill="#FF6666"/>
<path d="M472.647 116.944C472.253 115.131 471.253 113.507 469.812 112.341C468.37 111.174 466.574 110.534 464.719 110.526C464.134 110.528 463.552 110.592 462.981 110.716C458.734 111.638 451.186 120.886 450.868 121.276L450.493 121.736L451.025 122.002C451.443 122.211 460.534 126.714 465.294 126.714C465.673 126.719 466.053 126.682 466.424 126.605C468.53 126.148 470.368 124.874 471.535 123.062C472.702 121.25 473.102 119.05 472.647 116.944H472.647ZM470.737 122.549C470.23 123.344 469.569 124.031 468.794 124.568C468.018 125.106 467.143 125.483 466.22 125.679C462.81 126.42 454.231 122.482 451.989 121.413C453.585 119.513 459.769 112.383 463.185 111.642C464.573 111.342 466.019 111.46 467.339 111.981C468.66 112.503 469.797 113.404 470.605 114.572C471.414 115.739 471.858 117.12 471.881 118.54C471.905 119.96 471.507 121.355 470.737 122.549V122.549Z" fill="#3F3D56"/>
<path d="M104.053 234.437L128.879 209.611C129.687 208.803 130.692 208.219 131.795 207.918C132.897 207.617 134.06 207.608 135.167 207.893C136.274 208.179 137.287 208.747 138.107 209.544C138.927 210.34 139.525 211.337 139.843 212.435V212.435C140.169 213.565 140.186 214.761 139.893 215.899C139.6 217.038 139.007 218.077 138.176 218.908L122.326 234.758L144.446 252.39L144.435 252.407C144.546 252.401 144.655 252.39 144.767 252.39C146.097 252.389 147.398 252.783 148.504 253.522C149.611 254.26 150.474 255.309 150.985 256.538C151.496 257.766 151.631 259.118 151.374 260.423C151.117 261.729 150.479 262.928 149.54 263.871C148.602 264.814 147.405 265.458 146.101 265.721C144.797 265.984 143.444 265.856 142.213 265.351C140.983 264.846 139.929 263.988 139.186 262.884C138.442 261.781 138.042 260.483 138.036 259.152L104.053 234.437Z" fill="#A0616A"/>
<path d="M177.369 387.772L184.733 385.023L177.634 355.31L166.765 359.367L177.369 387.772Z" fill="#A0616A"/>
<path d="M201.488 386.558L178.344 395.199L175.005 386.256L189.524 380.836C191.812 379.982 194.345 380.072 196.567 381.085C198.788 382.099 200.516 383.954 201.37 386.241L201.488 386.558Z" fill="#2F2E41"/>
<path d="M111.117 385.409L118.978 385.408L122.718 355.089L111.116 355.089L111.117 385.409Z" fill="#A0616A"/>
<path d="M134.138 392.707L109.433 392.708L109.433 383.163L124.931 383.162C127.373 383.162 129.714 384.132 131.441 385.859C133.168 387.585 134.138 389.927 134.138 392.369L134.138 392.707Z" fill="#2F2E41"/>
<path d="M130.982 243.413C130.982 243.413 150.217 240.207 156.629 247.901L183.878 373.891L168.49 375.815C168.49 375.815 163.361 310.415 137.714 293.104C137.714 293.104 119.12 350.809 122.326 377.097L108.862 375.815C108.862 375.815 104.694 265.213 130.982 243.413Z" fill="#2F2E41"/>
<path d="M170.949 288.888L173.155 285.993L172.793 285.717L174.281 283.764C174.629 283.308 174.884 282.787 175.03 282.232C175.177 281.677 175.213 281.099 175.136 280.53C175.06 279.961 174.871 279.413 174.583 278.916C174.294 278.42 173.91 277.986 173.454 277.638L173.454 277.638L168.101 273.559C167.645 273.211 167.124 272.956 166.569 272.81C166.014 272.663 165.436 272.627 164.867 272.704C164.298 272.781 163.75 272.969 163.253 273.257C162.757 273.546 162.323 273.93 161.975 274.386L161.975 274.386L149.345 290.959C148.997 291.416 148.743 291.937 148.596 292.492C148.449 293.047 148.413 293.625 148.49 294.194C148.567 294.763 148.755 295.311 149.044 295.807C149.332 296.304 149.716 296.738 150.173 297.086L150.173 297.086L155.525 301.165C156.447 301.868 157.611 302.175 158.76 302.02C159.909 301.865 160.949 301.26 161.652 300.338L161.652 300.337L167.553 292.594L167.915 292.87L170.121 289.974L169.759 289.698L170.587 288.612L170.949 288.888Z" fill="#4BC6B9"/>
<path d="M166.64 283.303C167.897 283.303 168.915 282.284 168.915 281.028C168.915 279.771 167.897 278.752 166.64 278.752C165.383 278.752 164.365 279.771 164.365 281.028C164.365 282.284 165.383 283.303 166.64 283.303Z" fill="white"/>
<path d="M135.638 193.449C144.027 193.449 150.828 186.648 150.828 178.259C150.828 169.869 144.027 163.069 135.638 163.069C127.249 163.069 120.448 169.869 120.448 178.259C120.448 186.648 127.249 193.449 135.638 193.449Z" fill="#A0616A"/>
<path d="M120.723 206.867C120.723 206.867 134.829 190.196 146.37 203.661C153.796 212.324 157.723 223.446 157.384 234.851L156.949 249.504L130.341 245.337L120.723 206.867Z" fill="#4BC6B9"/>
<path d="M140.882 202.586C139.879 202.599 138.892 202.831 137.988 203.264C137.084 203.698 136.285 204.324 135.647 205.097C135.009 205.871 134.548 206.774 134.294 207.745C134.041 208.715 134.003 209.729 134.181 210.715L148.739 291.284L148.658 291.395C148.077 292.186 147.68 293.097 147.496 294.062C147.312 295.026 147.346 296.019 147.594 296.969C147.843 297.918 148.3 298.801 148.933 299.551C149.565 300.302 150.358 300.902 151.251 301.307C152.705 301.949 154.34 302.052 155.863 301.599C157.386 301.146 158.699 300.166 159.566 298.834C160.427 297.491 160.769 295.881 160.53 294.304C160.291 292.727 159.486 291.291 158.265 290.264L158.17 290.184L147.82 208.619C147.61 206.952 146.798 205.419 145.537 204.308C144.277 203.198 142.654 202.585 140.974 202.585C140.944 202.585 140.913 202.585 140.882 202.586Z" fill="#A0616A"/>
<path d="M138.101 180.887L144.627 173.198C146.309 171.217 148.068 169.058 148.306 166.47C148.567 163.633 146.841 160.876 144.482 159.278C142.123 157.681 139.226 157.08 136.385 156.859C131.117 156.45 125.574 157.321 121.243 160.348C116.912 163.376 114.079 168.842 115.135 174.019C115.966 178.096 119.03 182.001 117.839 185.988C116.536 190.35 111.193 191.688 106.83 192.989C99.507 195.172 92.5146 199.47 88.6769 206.078C84.8392 212.686 84.856 221.798 89.9717 227.474C93.2843 231.149 98.2805 233.008 103.221 233.288C108.161 233.568 113.078 232.404 117.763 230.813C122.078 229.347 126.346 227.462 129.743 224.424C133.14 221.387 135.587 217.04 135.481 212.485C135.38 208.143 133.054 204.188 132.099 199.952C131.345 196.405 131.543 192.721 132.672 189.275C133.801 185.828 135.822 182.742 138.528 180.328" fill="#2F2E41"/>
<path d="M127.73 155.782L131.841 154.975C132.181 154.908 132.531 154.909 132.87 154.978C133.21 155.046 133.532 155.181 133.82 155.374C134.107 155.567 134.354 155.815 134.545 156.103C134.737 156.392 134.87 156.715 134.936 157.055L140.621 176.13L131.335 177.952L125.65 158.877C125.516 158.191 125.659 157.479 126.049 156.899C126.439 156.318 127.044 155.916 127.73 155.782Z" fill="#4BC6B9"/>
<path d="M136.775 186.953C140.905 186.953 144.253 183.606 144.253 179.476C144.253 175.347 140.905 171.999 136.775 171.999C132.646 171.999 129.298 175.347 129.298 179.476C129.298 183.606 132.646 186.953 136.775 186.953Z" fill="white"/>
<path d="M136.776 183.63C139.07 183.63 140.93 181.771 140.93 179.476C140.93 177.182 139.07 175.322 136.776 175.322C134.481 175.322 132.622 177.182 132.622 179.476C132.622 181.771 134.481 183.63 136.776 183.63Z" fill="#4BC6B9"/>
</g>
<defs>
<clipPath id="clip0">
<rect width="611" height="399.836" fill="white" transform="translate(-7)"/>
</clipPath>
</defs>
</svg>
