<svg width="30" height="30" viewBox="0 0 30 30" fill="none" xmlns="http://www.w3.org/2000/svg">
<path d="M10.5486 3.56087V18.9289C9.67495 18.4221 8.66188 18.1304 7.58126 18.1304C4.30883 18.1304 1.64648 20.7928 1.64648 24.0652C1.64648 27.3377 4.30883 30 7.58126 30C10.8537 30 13.516 27.3377 13.516 24.0652V5.99353L25.3856 3.61962V15.9615C24.512 15.4548 23.4988 15.1631 22.4182 15.1631C19.1458 15.1631 16.4834 17.8254 16.4834 21.0978C16.4834 24.3703 19.1458 27.0326 22.4182 27.0326C25.6906 27.0326 28.353 24.3703 28.353 21.0978V0L10.5486 3.56087ZM7.58126 27.0326C5.94504 27.0326 4.61387 25.7014 4.61387 24.0652C4.61387 22.429 5.94504 21.0978 7.58126 21.0978C9.21748 21.0978 10.5486 22.429 10.5486 24.0652C10.5486 25.7014 9.21748 27.0326 7.58126 27.0326ZM22.4182 24.0652C20.782 24.0652 19.4508 22.7341 19.4508 21.0978C19.4508 19.4616 20.782 18.1304 22.4182 18.1304C24.0544 18.1304 25.3856 19.4616 25.3856 21.0978C25.3856 22.7341 24.0544 24.0652 22.4182 24.0652Z" fill="#FF6666"/>
</svg>
